<svg xmlns="http://www.w3.org/2000/svg" viewBox="0 0 500 500"><defs><style>.cls-1{fill:#469142;}.cls-2{fill:#ffbf40;}.cls-3,.cls-5,.cls-6{fill:#3688ff;}.cls-4{fill:#f22;}.cls-5{font-size:51.8px;font-family:Anton-Regular, Anton;}.cls-6{font-size:33.63px;font-family:Roboto-Regular, Roboto;}</style></defs><g id="Layer_2" data-name="Layer 2"><g id="draggable"><path class="cls-1" d="M251.74,167.54l-9.23,9.23a8.79,8.79,0,0,1-12.41,0l-37.63-37.63a8.77,8.77,0,0,1,0-12.41l9.22-9.23a8.77,8.77,0,0,1,12.41,0l37.64,37.63A8.79,8.79,0,0,1,251.74,167.54Zm-3.45,62.31,37.63,37.63a8.77,8.77,0,0,0,12.41,0l9.23-9.22a8.77,8.77,0,0,0,0-12.41l-37.63-37.64a8.79,8.79,0,0,0-12.41,0l-9.23,9.23A8.77,8.77,0,0,0,248.29,229.85Z"/><path class="cls-2" d="M226.44,190.59l9.23,9.22a8.79,8.79,0,0,1,0,12.41L198,249.86a8.79,8.79,0,0,1-12.41,0l-9.22-9.23a8.77,8.77,0,0,1,0-12.41L214,190.59A8.77,8.77,0,0,1,226.44,190.59Zm60.75,1.88,37.63-37.63a8.77,8.77,0,0,0,0-12.41l-9.23-9.23a8.77,8.77,0,0,0-12.41,0l-37.63,37.63a8.77,8.77,0,0,0,0,12.41l9.23,9.23A8.77,8.77,0,0,0,287.19,192.47Z"/><path class="cls-3" d="M225.57,172.73h0l-14-14.49a97.6,97.6,0,0,0,29.94-15.37l39.64-37.13a15.63,15.63,0,0,1,11.16-3.56,15.23,15.23,0,0,1,10.4,5.37h0a15.29,15.29,0,0,1-1.81,21.56l-53.77,45.43A15.31,15.31,0,0,1,225.57,172.73Zm7.87,22.46L188,141.42a15.3,15.3,0,0,0-21.56-1.81h0a15.19,15.19,0,0,0-5.37,10.4,15.61,15.61,0,0,0,3.56,11.16l37.13,39.64a97.6,97.6,0,0,1,15.37,29.94l14.49-14h0A15.31,15.31,0,0,0,233.44,195.19Zm19.45,15.25-53.77,45.43a15.31,15.31,0,0,0-1.81,21.56h0a15.21,15.21,0,0,0,10.41,5.37,15.66,15.66,0,0,0,11.15-3.55l39.64-37.14a97.6,97.6,0,0,1,29.94-15.37q-7-7.25-14-14.48h0A15.3,15.3,0,0,0,252.89,210.44Zm14.89-22.57,45.43,53.77a15.3,15.3,0,0,0,21.56,1.81h0a15.29,15.29,0,0,0,5.37-10.4,15.61,15.61,0,0,0-3.56-11.16l-37.14-39.64a97.6,97.6,0,0,1-15.37-29.94l-14.48,14h0A15.3,15.3,0,0,0,267.78,187.87Z"/><path class="cls-4" d="M172.75,197.72a17.88,17.88,0,1,1-17.88-17.88A17.88,17.88,0,0,1,172.75,197.72Zm172.38-29.86A17.88,17.88,0,1,0,363,185.74,17.89,17.89,0,0,0,345.13,167.86Zm-101-88.11A17.88,17.88,0,1,0,262,97.63,17.88,17.88,0,0,0,244.11,79.75Zm12.53,188.16a17.88,17.88,0,1,0,17.88,17.88A17.88,17.88,0,0,0,256.64,267.91Z"/></g><g id="text"><text class="cls-5" transform="translate(91.09 368.22)">Company Name</text></g><g id="text-2" data-name="text"><text class="cls-6" transform="translate(198.49 411.14)">test</text></g></g></svg>