<svg width="40" height="40" viewBox="0 0 40 40" fill="none" xmlns="http://www.w3.org/2000/svg">
<path opacity="0.4" d="M6.65011 24.4332L4.1168 21.9C3.08346 20.8666 3.08346 19.1666 4.1168 18.1333L6.65011 15.5999C7.08345 15.1666 7.43345 14.3166 7.43345 13.7166V10.1333C7.43345 8.66665 8.63346 7.46659 10.1001 7.46659H13.6834C14.2834 7.46659 15.1335 7.11664 15.5668 6.6833L18.1001 4.14994C19.1334 3.11661 20.8335 3.11661 21.8668 4.14994L24.4002 6.6833C24.8335 7.11664 25.6834 7.46659 26.2834 7.46659H29.8668C31.3335 7.46659 32.5334 8.66665 32.5334 10.1333V13.7166C32.5334 14.3166 32.8834 15.1666 33.3168 15.5999L35.8501 18.1333C36.8835 19.1666 36.8835 20.8666 35.8501 21.9L33.3168 24.4332C32.8834 24.8666 32.5334 25.7166 32.5334 26.3166V29.9C32.5334 31.3666 31.3335 32.5666 29.8668 32.5666H26.2834C25.6834 32.5666 24.8335 32.9166 24.4002 33.35L21.8668 35.8833C20.8335 36.9167 19.1334 36.9167 18.1001 35.8833L15.5668 33.35C15.1335 32.9166 14.2834 32.5666 13.6834 32.5666H10.1001C8.63346 32.5666 7.43345 31.3666 7.43345 29.9V26.3166C7.43345 25.6999 7.08345 24.8499 6.65011 24.4332Z" fill="#4D37CD"/>
<path d="M25 26.6667C24.0667 26.6667 23.3167 25.9167 23.3167 25C23.3167 24.0833 24.0667 23.3333 24.9833 23.3333C25.9 23.3333 26.65 24.0833 26.65 25C26.65 25.9167 25.9167 26.6667 25 26.6667Z" fill="#4D37CD"/>
<path d="M15.0166 16.6667C14.0833 16.6667 13.3333 15.9167 13.3333 15C13.3333 14.0833 14.0833 13.3333 14.9999 13.3333C15.9166 13.3333 16.6666 14.0833 16.6666 15C16.6666 15.9167 15.9333 16.6667 15.0166 16.6667Z" fill="#4D37CD"/>
<path d="M15 26.25C14.6833 26.25 14.3667 26.1333 14.1167 25.8833C13.6333 25.4 13.6333 24.5999 14.1167 24.1166L24.1167 14.1166C24.6 13.6332 25.4 13.6332 25.8833 14.1166C26.3666 14.5999 26.3666 15.4 25.8833 15.8833L15.8833 25.8833C15.6333 26.1333 15.3166 26.25 15 26.25Z" fill="#4D37CD"/>
</svg>
