<svg width="124" height="38" viewBox="0 0 124 38" fill="none" xmlns="http://www.w3.org/2000/svg">
<path d="M37.3822 23.5007C37.3619 23.6232 37.3416 23.7458 37.3213 23.8684H37.301C37.2401 23.8684 37.1793 23.8684 37.1387 23.8888C34.0338 23.9705 30.9492 24.3995 27.9458 25.1146C27.4182 25.2371 26.8703 25.3801 26.3427 25.5231C23.5219 26.2994 20.7823 27.3413 18.1442 28.6487C17.7383 28.853 17.3528 29.0573 16.9469 29.282C15.0191 30.3035 13.1521 31.4679 11.3866 32.7754C11.3257 32.8162 11.2648 32.8571 11.2039 32.9184V32.9184C11.1633 32.9388 11.1431 32.9592 11.1025 32.9797C11.0822 32.9592 11.0416 32.9388 11.0213 32.9184C10.9401 32.8571 10.8792 32.7958 10.8184 32.7345C10.8589 32.7141 10.8792 32.6937 10.9198 32.6732H10.9401C11.0213 32.6119 11.1025 32.5507 11.1836 32.4894C12.9491 31.2024 14.8161 30.0175 16.7237 28.996C17.1093 28.7917 17.4948 28.5875 17.9007 28.3832C20.62 27.0349 23.4407 25.9521 26.363 25.1554C26.8906 24.992 27.4182 24.8694 27.9458 24.7468C30.9898 24.0114 34.0744 23.5824 37.2198 23.5211C37.2401 23.5007 37.3213 23.5007 37.3822 23.5007Z" fill="#4834C1"/>
<path d="M37.5445 22.0707C37.5242 22.2341 37.5242 22.418 37.5039 22.5814H37.3213C35.4543 22.6018 33.5062 22.704 31.8827 22.9287C30.5231 23.1125 29.1025 23.3168 27.7023 23.5824C27.2559 23.6641 26.8297 23.7458 26.4035 23.8275C26.3224 23.848 26.2412 23.8684 26.16 23.8888C22.9334 24.5834 19.9097 25.6049 17.0687 26.994C16.6831 27.1779 16.2975 27.3822 15.9119 27.5865C14.6132 28.281 13.3347 29.0369 12.0765 29.8949C11.2648 30.4465 10.514 30.9572 9.74281 31.4475V31.4475C9.70222 31.4679 9.66164 31.4884 9.64134 31.5088L9.58046 31.4475C9.479 31.3454 9.39782 31.2432 9.31665 31.1206C9.35724 31.0798 9.39782 31.0594 9.41812 31.0389H9.43841C10.2096 30.5486 10.9807 30.0175 11.8127 29.4659C13.1115 28.5875 14.4305 27.7907 15.7699 27.0757C16.1555 26.8714 16.5207 26.6876 16.9266 26.5037C19.788 25.1146 22.7913 24.0931 26.018 23.3985C26.1194 23.3577 26.2209 23.3373 26.3427 23.3168C26.7688 23.2351 27.195 23.1534 27.6008 23.0717C29.0417 22.8061 30.4825 22.6018 31.8421 22.3975C33.5062 22.1728 35.4746 22.0707 37.3822 22.0502H37.5445V22.0707Z" fill="#4834C1"/>
<path d="M37.5849 20.6406C37.6052 20.8654 37.6052 21.0696 37.5849 21.2944H37.4023C35.6165 21.2535 33.7698 21.2535 32.4305 21.4374C31.497 21.5599 30.5838 21.6416 29.6909 21.7234C28.7777 21.8051 27.9051 21.8868 27.0528 22.0094H27.0122C26.4237 22.0502 25.8555 22.1319 25.3076 22.2341C24.0088 22.4588 22.7506 22.7244 21.533 23.0717C21.5127 23.0512 21.5127 23.0717 21.5127 23.0717C19.869 23.5415 18.2861 24.1135 16.7438 24.849C16.3177 25.0328 15.8915 25.2576 15.4856 25.4618C14.5724 25.9317 13.6795 26.4424 12.7663 27.0144C11.3864 27.8725 9.92529 28.7918 8.42359 29.6702H8.4033C8.36271 29.6906 8.32212 29.7111 8.28154 29.7519C8.26124 29.7315 8.24095 29.6906 8.22066 29.6702C8.11919 29.5068 8.01773 29.3638 7.91626 29.2003C7.95685 29.1799 7.99743 29.1595 8.03802 29.1186H8.05831C9.56001 28.2197 11.0211 27.3004 12.4011 26.4424C13.4157 25.8091 14.4304 25.2371 15.4856 24.7264C15.9321 24.5017 16.3988 24.277 16.8656 24.0727C18.3673 23.3985 19.9298 22.847 21.533 22.3975L21.5533 22.3771C22.6086 22.0707 23.7044 21.8255 24.8205 21.6416C25.4293 21.5191 26.0381 21.4374 26.6672 21.3556C26.7687 21.3352 26.8701 21.3148 26.9716 21.3148C27.8645 21.1922 28.7777 21.1105 29.6503 21.0288C30.5432 20.9471 31.4564 20.8654 32.3696 20.7428C33.7495 20.5793 35.5962 20.5589 37.4226 20.5998H37.5849V20.6406Z" fill="#4834C1"/>
<path d="M37.4836 19.1493C37.4228 19.1493 37.3619 19.1493 37.301 19.1289C35.5761 19.0472 33.912 19.0268 32.8771 19.1289C31.6189 19.2719 30.3404 19.2923 29.1025 19.3128C28.5952 19.3332 28.0879 19.3332 27.5806 19.3536C26.505 19.3945 25.4701 19.4762 24.4554 19.5988C21.6549 19.9461 19.0777 20.6202 16.5613 21.6621C15.364 22.1728 14.2073 22.7652 13.0506 23.419C12.4418 23.7867 11.8127 24.134 11.1836 24.5017C10.2907 25.0329 9.37753 25.564 8.42375 26.0952C7.93671 26.3812 7.44968 26.6059 6.96264 26.8306H6.94235C6.88147 26.851 6.84088 26.8715 6.80029 26.8919C6.90176 27.1166 6.98293 27.3413 7.10469 27.566C7.12498 27.5865 7.12498 27.6069 7.14528 27.6273C7.18586 27.6069 7.24674 27.5865 7.28733 27.566H7.30762C7.81495 27.3413 8.30199 27.0962 8.82961 26.7897C9.7834 26.2586 10.6966 25.707 11.5895 25.1963C12.2186 24.8286 12.8477 24.4608 13.4565 24.0931C14.2885 23.6028 15.1408 23.1738 15.9728 22.7857C16.6628 22.4588 17.3528 22.1728 18.0427 21.9277C19.6053 21.3557 21.2288 20.9062 22.974 20.5998C22.974 20.5998 22.974 20.5998 22.9943 20.5998C23.8263 20.4568 24.6786 20.3546 25.5512 20.2729C26.2209 20.2116 26.9109 20.1708 27.6211 20.1504C28.1082 20.1299 28.6155 20.1095 29.1431 20.1095C30.381 20.0891 31.6798 20.0686 32.9988 19.9256C34.0135 19.8235 35.6775 19.8644 37.4025 19.9461C37.4634 19.9461 37.5242 19.9665 37.5648 19.9665H37.5851C37.5445 19.6805 37.5039 19.4149 37.4836 19.1493Z" fill="#4834C1"/>
<path d="M37.4024 18.5569C37.3416 18.5569 37.2807 18.5365 37.2198 18.5365C35.6572 18.4344 34.2367 18.3526 33.4858 18.4139C31.9841 18.5365 30.523 18.4344 29.1025 18.3527C28.7778 18.3322 28.4734 18.3118 28.1487 18.2914C22.771 18.0054 18.5703 18.8838 14.1058 21.2331C12.9694 21.846 11.7721 22.4997 10.5342 23.2147C10.1689 23.3986 9.82394 23.6029 9.47896 23.8072C8.40342 24.3996 7.36846 24.7877 6.3741 25.0533C6.31322 25.0533 6.27263 25.0737 6.21175 25.0942C6.21175 25.0737 6.19146 25.0533 6.19146 25.0533C6.11028 24.7469 6.04941 24.4609 5.98853 24.1749C6.04941 24.1544 6.08999 24.134 6.15087 24.134H6.17116C7.08436 23.8889 8.01785 23.5416 9.03251 22.9696C9.39779 22.7857 9.74277 22.5814 10.0675 22.3771C11.3256 21.6826 12.5229 21.0084 13.6797 20.3955C18.2253 17.9849 22.7304 17.0452 28.2299 17.3516C28.5546 17.3721 28.859 17.3925 29.1837 17.4129C30.5636 17.4946 31.9841 17.5968 33.425 17.4742C34.1758 17.4129 35.5355 17.4742 37.0574 17.5764C37.1183 17.5764 37.1792 17.5968 37.2198 17.5968H37.2401C37.301 17.9236 37.3618 18.2301 37.4024 18.5569Z" fill="#4834C1"/>
<path d="M37.1386 17.1269C37.0777 17.1269 37.0168 17.1065 36.956 17.1065C35.6572 16.9839 34.5208 16.9022 34.0337 16.943C32.4306 17.0452 30.868 16.8 29.3663 16.5549C29.1634 16.514 28.9401 16.4936 28.7372 16.4527C23.3189 15.6356 19.2806 16.1872 14.7755 18.3526C13.2738 19.0676 11.6706 19.9461 10.1486 20.7837C8.64692 21.6008 7.2264 21.9481 5.88704 22.0502H5.86675C5.80587 22.0502 5.74499 22.0707 5.7044 22.0707V22.0298C5.68411 21.6825 5.66382 21.3352 5.66382 20.9879C5.7247 20.9879 5.78558 20.9675 5.82616 20.9675H5.84646C7.10464 20.8654 8.32223 20.5589 9.64129 19.8235C11.1633 18.9859 12.7867 18.1075 14.3087 17.3925C18.9762 15.1453 23.3189 14.5529 28.8996 15.3904C29.1025 15.4313 29.3054 15.4517 29.5286 15.4926C30.9695 15.7173 32.4712 15.942 33.9729 15.8603C34.4802 15.8194 35.4746 15.9012 36.6516 16.0033C36.7124 16.0033 36.7733 16.0237 36.8139 16.0237H36.8342C36.9357 16.371 37.0371 16.7592 37.1386 17.1269Z" fill="#4834C1"/>
<path d="M5.98855 17.7193C6.04943 17.7398 6.09001 17.7398 6.15089 17.7398H6.17119C7.46995 17.8011 8.80931 17.4333 10.2704 16.6775C12.2186 15.656 13.6594 14.9206 14.9784 14.369C20.8635 11.8154 25.47 12.4078 29.5896 13.4293L30.0157 13.5314C31.4768 13.8991 32.9988 14.2873 34.5208 14.226C34.7846 14.2056 35.292 14.2464 35.9819 14.3282C36.0428 14.3486 36.1037 14.3486 36.1646 14.3486H36.1849L36.7125 15.6356H36.6922C36.6313 15.6152 36.5704 15.6152 36.5096 15.6152C35.5761 15.513 34.8252 15.4313 34.5614 15.4517C32.8568 15.513 31.2536 15.1044 29.7316 14.7163L29.3055 14.6142C24.7598 13.4906 20.6808 13.2046 15.4452 15.4722C14.1464 16.0442 12.7259 16.7388 10.8183 17.7602C9.29634 18.5774 7.81494 18.9859 6.37412 18.9859C6.23207 18.9859 6.11031 18.9859 5.96825 18.9655V18.9655C5.90737 18.9859 5.84649 18.9655 5.80591 18.9655V18.9451L5.98855 17.7193Z" fill="#4834C1"/>
<path d="M36.0226 14.0421C35.5355 13.9808 35.1906 13.94 35.0688 13.94H34.9267C33.2221 13.94 31.6392 13.4088 30.1173 12.8573L29.8331 12.7347C25.2469 11.1412 21.3506 10.5692 16.0946 12.6121C14.7756 13.1228 13.2536 13.8174 11.4881 14.7367C10.2096 15.3904 8.97172 15.7173 7.71354 15.7173C7.38885 15.7173 7.06416 15.6969 6.73946 15.656H6.71917C6.67858 15.656 6.638 15.656 6.59741 15.6356C6.75976 15.1861 6.96269 14.7571 7.18592 14.3486H7.26709H7.28738C8.50497 14.4507 9.66169 14.1647 10.8996 13.5314C12.6854 12.5917 14.2277 11.8767 15.6076 11.3455C21.2288 9.15963 25.531 9.81335 30.2796 11.4681L30.584 11.5702C32.0451 12.081 33.5468 12.5917 35.0688 12.5712H35.0891C35.1297 12.5712 35.1906 12.5712 35.2514 12.5917C35.3123 12.653 35.3529 12.7347 35.3935 12.796V12.8164L36.0226 14.0421Z" fill="#4834C1"/>
<path d="M33.8307 10.6509C33.7901 10.6305 33.7495 10.6305 33.709 10.6101C33.6684 10.5896 33.6278 10.5896 33.5872 10.5692C32.7755 10.3241 31.9637 9.95633 31.1926 9.58861L30.9694 9.48647C26.1396 7.28015 21.9998 6.31999 16.2568 8.28117C14.816 8.81232 13.2534 9.48647 11.4879 10.3649C10.737 10.7531 10.0471 10.9369 9.37739 11.0186C9.3368 11.0186 9.31651 11.0391 9.29621 11.0186H9.27592C8.89035 11.4885 8.56566 11.9788 8.26126 12.4895V12.5099C8.26126 12.5099 8.26126 12.5099 8.24097 12.5099V12.5304C9.43827 12.6121 10.737 12.4282 12.1576 11.7132C13.8622 10.8552 15.3639 10.2015 16.7438 9.73161C22.0201 7.93387 25.7337 8.77146 30.3606 10.8756L30.5838 10.9778C31.9029 11.5702 33.364 12.2444 34.9468 12.3874C35.0077 12.4078 35.0686 12.4078 35.1295 12.4078C34.7439 11.7949 34.3178 11.2025 33.8307 10.6509Z" fill="#4834C1"/>
<path d="M10.8184 9.34351C17.0484 3.41914 26.85 3.52129 32.938 9.67037C33.1003 9.8338 33.2627 10.0177 33.4047 10.1811C33.3438 10.1607 33.283 10.1402 33.2221 10.0994C32.4306 9.79295 31.6392 9.42523 30.8884 8.99622C25.1048 5.74803 20.7417 4.8083 12.8477 8.71022C12.2186 9.01665 11.6301 9.20051 11.0619 9.32308C10.9604 9.32308 10.8792 9.34351 10.8184 9.34351Z" fill="#4834C1"/>
<path d="M21.6143 33.0001C28.4062 33.0001 33.912 27.4575 33.912 20.6202C33.912 13.783 28.4062 8.24036 21.6143 8.24036C14.8225 8.24036 9.31665 13.783 9.31665 20.6202C9.31665 27.4575 14.8225 33.0001 21.6143 33.0001Z" fill="url(#paint0_linear_85_852)"/>
<path d="M48.35 11.608V23H51.038V11.608H48.35ZM53.0712 21.432V23H60.7032V21.032H56.5112L60.5432 16.376V14.808H53.2312V16.776H57.2472L53.0712 21.432ZM64.5806 18.136C64.7886 17.048 65.5246 16.328 66.5806 16.328C67.6686 16.328 68.4686 17.096 68.6126 18.136H64.5806ZM62.1166 18.84C62.1166 21.48 63.9726 23.32 66.6126 23.32C68.6126 23.32 70.3406 22.152 70.7406 20.552L68.5806 20.248C68.3246 20.968 67.5726 21.48 66.6766 21.48C65.5886 21.48 64.8046 20.728 64.5966 19.576L71.0126 19.592C71.0446 19.416 71.0446 19.08 71.0446 18.872C71.0446 16.28 69.2526 14.488 66.6286 14.488C63.9886 14.488 62.1166 16.28 62.1166 18.84ZM74.8462 18.136C75.0542 17.048 75.7902 16.328 76.8462 16.328C77.9342 16.328 78.7342 17.096 78.8782 18.136H74.8462ZM72.3822 18.84C72.3822 21.48 74.2382 23.32 76.8782 23.32C78.8782 23.32 80.6062 22.152 81.0062 20.552L78.8462 20.248C78.5902 20.968 77.8382 21.48 76.9422 21.48C75.8542 21.48 75.0702 20.728 74.8622 19.576L81.2782 19.592C81.3102 19.416 81.3102 19.08 81.3102 18.872C81.3102 16.28 79.5182 14.488 76.8942 14.488C74.2542 14.488 72.3822 16.28 72.3822 18.84ZM82.9998 11.128V23H85.3998V11.128H82.9998ZM91.629 14.488C88.941 14.488 87.085 16.28 87.085 18.904C87.085 21.512 88.941 23.32 91.629 23.32C94.333 23.32 96.189 21.512 96.189 18.904C96.189 16.28 94.333 14.488 91.629 14.488ZM91.629 21.208C90.381 21.208 89.501 20.248 89.501 18.904C89.501 17.56 90.381 16.6 91.629 16.6C92.893 16.6 93.773 17.56 93.773 18.904C93.773 20.248 92.893 21.208 91.629 21.208ZM102.067 21.144C100.819 21.144 99.9228 20.2 99.9228 18.904C99.9228 17.576 100.819 16.6 102.067 16.6C103.315 16.6 104.211 17.576 104.211 18.904C104.211 20.2 103.315 21.144 102.067 21.144ZM102.035 25.096C101.059 25.096 100.195 24.424 99.9868 23.496L97.8428 23.736C98.0828 25.624 99.8908 27 102.131 27C104.723 27 106.515 25.448 106.515 22.904V14.808H104.115V15.784C103.491 14.984 102.563 14.504 101.411 14.504C99.1548 14.504 97.5228 16.328 97.5228 18.904C97.5228 21.384 99.1548 23.112 101.411 23.112C102.547 23.112 103.475 22.648 104.115 21.864V22.84C104.115 24.264 103.251 25.096 102.035 25.096ZM112.754 14.488C110.066 14.488 108.21 16.28 108.21 18.904C108.21 21.512 110.066 23.32 112.754 23.32C115.458 23.32 117.314 21.512 117.314 18.904C117.314 16.28 115.458 14.488 112.754 14.488ZM112.754 21.208C111.506 21.208 110.626 20.248 110.626 18.904C110.626 17.56 111.506 16.6 112.754 16.6C114.018 16.6 114.898 17.56 114.898 18.904C114.898 20.248 114.018 21.208 112.754 21.208ZM120.04 23.256C120.856 23.256 121.432 22.696 121.432 21.896C121.432 21.112 120.856 20.552 120.04 20.552C119.24 20.552 118.648 21.112 118.648 21.896C118.648 22.696 119.24 23.256 120.04 23.256Z" fill="#0D0921"/>
<path d="M48.35 11.608V23H51.038V11.608H48.35ZM53.0712 21.432V23H60.7032V21.032H56.5112L60.5432 16.376V14.808H53.2312V16.776H57.2472L53.0712 21.432ZM64.5806 18.136C64.7886 17.048 65.5246 16.328 66.5806 16.328C67.6686 16.328 68.4686 17.096 68.6126 18.136H64.5806ZM62.1166 18.84C62.1166 21.48 63.9726 23.32 66.6126 23.32C68.6126 23.32 70.3406 22.152 70.7406 20.552L68.5806 20.248C68.3246 20.968 67.5726 21.48 66.6766 21.48C65.5886 21.48 64.8046 20.728 64.5966 19.576L71.0126 19.592C71.0446 19.416 71.0446 19.08 71.0446 18.872C71.0446 16.28 69.2526 14.488 66.6286 14.488C63.9886 14.488 62.1166 16.28 62.1166 18.84ZM74.8462 18.136C75.0542 17.048 75.7902 16.328 76.8462 16.328C77.9342 16.328 78.7342 17.096 78.8782 18.136H74.8462ZM72.3822 18.84C72.3822 21.48 74.2382 23.32 76.8782 23.32C78.8782 23.32 80.6062 22.152 81.0062 20.552L78.8462 20.248C78.5902 20.968 77.8382 21.48 76.9422 21.48C75.8542 21.48 75.0702 20.728 74.8622 19.576L81.2782 19.592C81.3102 19.416 81.3102 19.08 81.3102 18.872C81.3102 16.28 79.5182 14.488 76.8942 14.488C74.2542 14.488 72.3822 16.28 72.3822 18.84ZM82.9998 11.128V23H85.3998V11.128H82.9998ZM91.629 14.488C88.941 14.488 87.085 16.28 87.085 18.904C87.085 21.512 88.941 23.32 91.629 23.32C94.333 23.32 96.189 21.512 96.189 18.904C96.189 16.28 94.333 14.488 91.629 14.488ZM91.629 21.208C90.381 21.208 89.501 20.248 89.501 18.904C89.501 17.56 90.381 16.6 91.629 16.6C92.893 16.6 93.773 17.56 93.773 18.904C93.773 20.248 92.893 21.208 91.629 21.208ZM102.067 21.144C100.819 21.144 99.9228 20.2 99.9228 18.904C99.9228 17.576 100.819 16.6 102.067 16.6C103.315 16.6 104.211 17.576 104.211 18.904C104.211 20.2 103.315 21.144 102.067 21.144ZM102.035 25.096C101.059 25.096 100.195 24.424 99.9868 23.496L97.8428 23.736C98.0828 25.624 99.8908 27 102.131 27C104.723 27 106.515 25.448 106.515 22.904V14.808H104.115V15.784C103.491 14.984 102.563 14.504 101.411 14.504C99.1548 14.504 97.5228 16.328 97.5228 18.904C97.5228 21.384 99.1548 23.112 101.411 23.112C102.547 23.112 103.475 22.648 104.115 21.864V22.84C104.115 24.264 103.251 25.096 102.035 25.096ZM112.754 14.488C110.066 14.488 108.21 16.28 108.21 18.904C108.21 21.512 110.066 23.32 112.754 23.32C115.458 23.32 117.314 21.512 117.314 18.904C117.314 16.28 115.458 14.488 112.754 14.488ZM112.754 21.208C111.506 21.208 110.626 20.248 110.626 18.904C110.626 17.56 111.506 16.6 112.754 16.6C114.018 16.6 114.898 17.56 114.898 18.904C114.898 20.248 114.018 21.208 112.754 21.208ZM120.04 23.256C120.856 23.256 121.432 22.696 121.432 21.896C121.432 21.112 120.856 20.552 120.04 20.552C119.24 20.552 118.648 21.112 118.648 21.896C118.648 22.696 119.24 23.256 120.04 23.256Z" fill="#0D0921"/>
<defs>
<linearGradient id="paint0_linear_85_852" x1="21.6245" y1="33.004" x2="21.6245" y2="8.2328" gradientUnits="userSpaceOnUse">
<stop stop-color="#CD84F1"/>
<stop offset="1" stop-color="#CD84F1" stop-opacity="0.5"/>
</linearGradient>
</defs>
</svg>
