<svg width="40" height="40" viewBox="0 0 40 40" fill="none" xmlns="http://www.w3.org/2000/svg">
<path d="M20.8666 2.50002H19.2C17.8166 2.50002 16.7 3.61668 16.7 5.00002V6.66668C16.7 8.05001 17.8166 9.16668 19.2 9.16668H20.8666C22.25 9.16668 23.3666 8.05001 23.3666 6.66668V5.00002C23.3666 3.61668 22.25 2.50002 20.8666 2.50002Z" fill="#4834C1"/>
<path d="M7.11662 17.7833H5.44995C4.06662 17.7833 2.94995 18.9 2.94995 20.2833V21.95C2.94995 23.3333 4.06662 24.45 5.44995 24.45H7.11662C8.49995 24.45 9.61662 23.3333 9.61662 21.95V20.2833C9.61662 18.9 8.48328 17.7833 7.11662 17.7833Z" fill="#4834C1"/>
<path d="M34.55 17.7833H32.8833C31.5 17.7833 30.3833 18.9 30.3833 20.2833V21.95C30.3833 23.3333 31.5 24.45 32.8833 24.45H34.55C35.9333 24.45 37.05 23.3333 37.05 21.95V20.2833C37.05 18.9 35.9333 17.7833 34.55 17.7833Z" fill="#4834C1"/>
<path d="M6.25 19.8667C5.56667 19.8667 5 19.3 5 18.6167C5 11.5 10.3333 5.51669 17.4 4.68336C18.0667 4.61669 18.7 5.09998 18.7833 5.78331C18.8667 6.46665 18.3667 7.08334 17.6833 7.16667C11.8833 7.85001 7.5 12.7667 7.5 18.6167C7.5 19.3 6.93333 19.8667 6.25 19.8667Z" fill="#4834C1"/>
<path d="M33.7499 19.8666C33.0665 19.8666 32.4999 19.3 32.4999 18.6166C32.4999 12.8 28.1499 7.88331 22.3832 7.18331C21.6999 7.09998 21.2165 6.48329 21.2999 5.79995C21.3832 5.11662 22.0165 4.63335 22.6999 4.71668C29.7165 5.56668 35.0165 11.55 35.0165 18.6333C34.9999 19.3 34.4499 19.8666 33.7499 19.8666Z" fill="#4834C1"/>
<path d="M22.1502 36.6833H17.8669C16.3335 36.6833 15.2002 35.45 15.4835 34.1166L16.1835 31.0333H23.8335L24.5335 34.1166C24.8502 35.5333 23.7835 36.6833 22.1502 36.6833Z" fill="#4834C1"/>
<path opacity="0.4" d="M26.7834 28.4166L23.8334 31.0333H16.1834L13.2334 28.4166C11.5168 27.0166 11.5168 25.9333 12.8168 24.2833L18.0167 17.7167C18.3834 17.2667 18.8001 16.95 19.2501 16.8C19.7334 16.6334 20.2667 16.6334 20.7501 16.8C21.2001 16.9667 21.6168 17.2667 21.9834 17.7167L27.1834 24.2833C28.4834 25.9333 28.4334 26.9666 26.7834 28.4166Z" fill="#4834C1"/>
</svg>
